<?xml version="1.0" encoding="utf-8"?>
<!-- Generator: Adobe Illustrator 16.0.0, SVG Export Plug-In . SVG Version: 6.00 Build 0)  -->
<!DOCTYPE svg PUBLIC "-//W3C//DTD SVG 1.1//EN" "http://www.w3.org/Graphics/SVG/1.1/DTD/svg11.dtd">
<svg version="1.1" id="Layer_1" xmlns="http://www.w3.org/2000/svg" xmlns:xlink="http://www.w3.org/1999/xlink" x="0px" y="0px"
	 width="1177.076px" height="139.002px" viewBox="0 0 1177.076 139.002" enable-background="new 0 0 1177.076 139.002"
	 xml:space="preserve">
<g>
	<g>
		<path fill="#459AFF" d="M52.86,54.818c15.138,0,27.409-12.271,27.409-27.409C80.269,12.271,67.998,0,52.86,0
			S25.451,12.271,25.451,27.409C25.451,42.546,37.722,54.818,52.86,54.818z M52.86,39.156c-6.487,0-11.747-5.259-11.747-11.747
			c0-6.487,5.259-11.747,11.747-11.747c6.488,0,11.747,5.259,11.747,11.747C64.606,33.896,59.348,39.156,52.86,39.156z
			 M33.282,131.171c0,4.325,3.506,7.831,7.831,7.831c4.325,0,7.831-3.506,7.831-7.831V70.48c0-4.325-3.506-7.831-7.831-7.831H7.831
			C3.506,62.649,0,66.155,0,70.48s3.506,7.831,7.831,7.831h25.451V131.171z M97.889,78.311c4.325,0,7.832-3.506,7.832-7.831
			s-3.506-7.831-7.832-7.831H64.606c-4.325,0-7.831,3.506-7.831,7.831v60.691c0,4.325,3.506,7.831,7.831,7.831
			c4.325,0,7.832-3.506,7.832-7.831v-52.86H97.889z"/>
	</g>
</g>
<g>
	<path fill="#459AFF" d="M183.628,20.802c-2.828,0-5.225-0.982-7.192-2.95c-1.968-1.967-2.95-4.364-2.95-7.192
		c0-2.766,0.982-5.131,2.95-7.099c1.967-1.966,4.364-2.95,7.192-2.95c2.766,0,5.131,0.984,7.099,2.95
		c2.028,1.968,3.042,4.333,3.042,7.099c0,2.828-1.014,5.225-3.042,7.192C188.759,19.819,186.394,20.802,183.628,20.802z
		 M183.72,38.32c2.335,0,4.302,0.83,5.901,2.489c1.66,1.66,2.489,3.658,2.489,5.993v83.809c0,2.337-0.83,4.304-2.489,5.901
		c-1.599,1.659-3.565,2.489-5.901,2.489h-0.184c-2.337,0-4.333-0.83-5.993-2.489c-1.66-1.598-2.489-3.564-2.489-5.901V46.802
		c0-2.335,0.83-4.333,2.489-5.993s3.656-2.489,5.993-2.489H183.72z"/>
	<path fill="#459AFF" d="M350.785,53.072c9.833,9.835,14.752,21.698,14.752,35.589v41.951c0,2.337-0.83,4.304-2.49,5.901
		c-1.659,1.659-3.627,2.489-5.9,2.489h-0.277c-2.274,0-4.241-0.83-5.901-2.489c-1.659-1.598-2.489-3.564-2.489-5.901v-4.24
		c-9.528,8.421-20.623,12.631-33.284,12.631c-13.892,0-25.755-4.917-35.589-14.752c-9.835-9.834-14.752-21.698-14.752-35.589
		c0-13.891,4.917-25.754,14.752-35.589c9.834-9.834,21.697-14.752,35.589-14.752C329.086,38.32,340.95,43.238,350.785,53.072z
		 M291.593,65.15c-6.454,6.516-9.681,14.353-9.681,23.511c0,9.22,3.227,17.089,9.681,23.603c6.514,6.454,14.383,9.682,23.603,9.682
		c9.22,0,17.057-3.228,23.511-9.682c6.514-6.514,9.773-14.383,9.773-23.603c0-9.158-3.259-16.995-9.773-23.511
		c-6.454-6.515-14.291-9.773-23.511-9.773C305.976,55.376,298.107,58.635,291.593,65.15z"/>
	<path fill="#459AFF" d="M401.034,130.611c0,2.337-0.83,4.304-2.489,5.901c-1.66,1.659-3.627,2.489-5.901,2.489h-0.277
		c-2.274,0-4.241-0.83-5.9-2.489c-1.66-1.598-2.49-3.564-2.49-5.901V79.902c0-11.433,4.057-21.236,12.17-29.412
		c8.114-8.114,17.917-12.17,29.412-12.17c13.706,0,24.74,5.471,33.1,16.411c8.297-10.94,19.299-16.411,33.007-16.411
		c11.493,0,21.298,4.057,29.411,12.17c8.114,8.175,12.171,17.979,12.171,29.412v50.709c0,2.337-0.8,4.304-2.397,5.901
		c-1.659,1.659-3.657,2.489-5.992,2.489h-0.185c-2.337,0-4.304-0.83-5.901-2.489c-1.659-1.598-2.488-3.564-2.488-5.901V79.902
		c0-6.761-2.398-12.54-7.192-17.333c-4.794-4.794-10.603-7.192-17.426-7.192c-6.763,0-12.539,2.397-17.333,7.192
		c-4.795,4.794-7.191,10.572-7.191,17.333v50.709c0,2.337-0.83,4.304-2.49,5.901c-1.599,1.659-3.564,2.489-5.9,2.489h-0.185
		c-2.336,0-4.333-0.83-5.993-2.489c-1.66-1.598-2.489-3.564-2.489-5.901V79.902c0-6.761-2.397-12.54-7.192-17.333
		c-4.794-4.794-10.573-7.192-17.333-7.192c-6.762,0-12.539,2.397-17.333,7.192c-4.794,4.794-7.191,10.572-7.191,17.333V130.611z"/>
	<path fill="#459AFF" d="M611.156,0.518c2.273,0,4.241,0.799,5.9,2.397c1.66,1.66,2.489,3.658,2.489,5.993v37.617
		c7.314-5.47,15.582-8.206,24.802-8.206c11.493,0,21.329,4.088,29.504,12.262c8.175,8.176,12.263,18.041,12.263,29.596v50.433
		c0,2.337-0.83,4.304-2.489,5.901c-1.599,1.659-3.565,2.489-5.9,2.489h-0.185c-2.337,0-4.334-0.83-5.993-2.489
		c-1.659-1.598-2.489-3.564-2.489-5.901V80.178c0-6.823-2.397-12.662-7.191-17.518c-4.856-4.854-10.695-7.284-17.519-7.284
		c-6.885,0-12.755,2.429-17.609,7.284c-4.795,4.856-7.192,10.695-7.192,17.518v50.433c0,2.337-0.829,4.304-2.489,5.901
		c-1.659,1.659-3.627,2.489-5.9,2.489h-0.276c-2.275,0-4.241-0.83-5.901-2.489c-1.659-1.598-2.489-3.564-2.489-5.901V8.908
		c0-2.335,0.83-4.333,2.489-5.993c1.66-1.598,3.626-2.397,5.901-2.397H611.156z"/>
	<path fill="#459AFF" d="M721.611,97.235c0,6.824,2.397,12.664,7.192,17.519c4.854,4.794,10.725,7.191,17.609,7.191
		c6.823,0,12.662-2.397,17.519-7.191c4.794-4.855,7.191-10.695,7.191-17.519V46.802c0-2.335,0.83-4.333,2.489-5.993
		s3.656-2.489,5.993-2.489h0.185c2.335,0,4.302,0.83,5.9,2.489c1.659,1.66,2.489,3.658,2.489,5.993v50.433
		c0,11.496-4.088,21.331-12.263,29.504c-8.175,8.176-18.011,12.263-29.504,12.263c-11.557,0-21.422-4.087-29.596-12.263
		c-8.176-8.174-12.263-18.009-12.263-29.504V46.802c0-2.335,0.83-4.333,2.489-5.993c1.66-1.66,3.626-2.489,5.901-2.489h0.276
		c2.273,0,4.241,0.83,5.9,2.489c1.66,1.66,2.489,3.658,2.489,5.993V97.235z"/>
	<path fill="#459AFF" d="M823.676,130.611c0,2.337-0.829,4.304-2.489,5.901c-1.659,1.659-3.627,2.489-5.9,2.489h-0.276
		c-2.275,0-4.241-0.83-5.901-2.489c-1.659-1.598-2.489-3.564-2.489-5.901V79.902c0-11.433,4.057-21.236,12.171-29.412
		c8.113-8.114,17.917-12.17,29.411-12.17c13.706,0,24.74,5.471,33.1,16.411c8.298-10.94,19.3-16.411,33.008-16.411
		c11.493,0,21.298,4.057,29.411,12.17c8.113,8.175,12.171,17.979,12.171,29.412v50.709c0,2.337-0.8,4.304-2.397,5.901
		c-1.66,1.659-3.658,2.489-5.993,2.489h-0.185c-2.336,0-4.303-0.83-5.9-2.489c-1.66-1.598-2.489-3.564-2.489-5.901V79.902
		c0-6.761-2.397-12.54-7.191-17.333c-4.795-4.794-10.604-7.192-17.426-7.192c-6.763,0-12.539,2.397-17.334,7.192
		c-4.794,4.794-7.191,10.572-7.191,17.333v50.709c0,2.337-0.83,4.304-2.489,5.901c-1.6,1.659-3.565,2.489-5.9,2.489h-0.185
		c-2.337,0-4.334-0.83-5.993-2.489c-1.66-1.598-2.489-3.564-2.489-5.901V79.902c0-6.761-2.397-12.54-7.191-17.333
		c-4.795-4.794-10.573-7.192-17.334-7.192c-6.762,0-12.539,2.397-17.333,7.192c-4.795,4.794-7.192,10.572-7.192,17.333V130.611z"/>
	<path fill="#459AFF" d="M1060.26,53.072c9.834,9.835,14.752,21.698,14.752,35.589v41.951c0,2.337-0.829,4.304-2.489,5.901
		c-1.659,1.659-3.627,2.489-5.9,2.489h-0.276c-2.275,0-4.241-0.83-5.901-2.489c-1.659-1.598-2.489-3.564-2.489-5.901v-4.24
		c-9.528,8.421-20.622,12.631-33.284,12.631c-13.892,0-25.755-4.917-35.589-14.752c-9.835-9.834-14.752-21.698-14.752-35.589
		c0-13.891,4.917-25.754,14.752-35.589c9.834-9.834,21.697-14.752,35.589-14.752C1038.562,38.32,1050.425,43.238,1060.26,53.072z
		 M1001.068,65.15c-6.454,6.516-9.682,14.353-9.682,23.511c0,9.22,3.228,17.089,9.682,23.603c6.515,6.454,14.383,9.682,23.603,9.682
		c9.221,0,17.058-3.228,23.511-9.682c6.515-6.514,9.773-14.383,9.773-23.603c0-9.158-3.259-16.995-9.773-23.511
		c-6.453-6.515-14.29-9.773-23.511-9.773C1015.451,55.376,1007.583,58.635,1001.068,65.15z"/>
	<path fill="#459AFF" d="M1110.508,130.611c0,2.337-0.829,4.304-2.489,5.901c-1.659,1.659-3.627,2.489-5.9,2.489h-0.276
		c-2.275,0-4.241-0.83-5.901-2.489c-1.659-1.598-2.489-3.564-2.489-5.901V80.178c0-11.555,4.087-21.42,12.263-29.596
		c8.174-8.174,18.039-12.262,29.596-12.262c11.493,0,21.329,4.088,29.504,12.262c8.175,8.176,12.263,18.041,12.263,29.596v50.433
		c0,2.337-0.83,4.304-2.489,5.901c-1.599,1.659-3.565,2.489-5.9,2.489h-0.185c-2.337,0-4.334-0.83-5.993-2.489
		c-1.659-1.598-2.489-3.564-2.489-5.901V80.178c0-6.823-2.397-12.662-7.191-17.518c-4.856-4.854-10.695-7.284-17.519-7.284
		c-6.885,0-12.755,2.429-17.609,7.284c-4.795,4.856-7.192,10.695-7.192,17.518V130.611z"/>
</g>
</svg>
