<?xml version="1.0" encoding="utf-8"?>
<!-- Generator: Adobe Illustrator 16.0.0, SVG Export Plug-In . SVG Version: 6.00 Build 0)  -->
<!DOCTYPE svg PUBLIC "-//W3C//DTD SVG 1.1//EN" "http://www.w3.org/Graphics/SVG/1.1/DTD/svg11.dtd">
<svg version="1.1" id="Layer_1" xmlns="http://www.w3.org/2000/svg" xmlns:xlink="http://www.w3.org/1999/xlink" x="0px" y="0px"
	 width="200px" height="200px" viewBox="0 0 200 200" enable-background="new 0 0 200 200" xml:space="preserve">
<rect x="0.14" y="0.499" fill="#FFFFFF" width="200" height="200"/>
<g>
	<g>
		<path fill="#459AFF" d="M100,85.317c15.138,0,27.41-12.271,27.41-27.409c0-15.137-12.271-27.409-27.41-27.409
			c-15.138,0-27.409,12.271-27.409,27.409C72.591,73.045,84.862,85.317,100,85.317z M100,69.655
			c-6.487,0-11.747-5.259-11.747-11.747c0-6.487,5.259-11.747,11.747-11.747c6.488,0,11.747,5.259,11.747,11.747
			C111.747,64.396,106.488,69.655,100,69.655z M80.422,161.67c0,4.325,3.506,7.831,7.831,7.831c4.325,0,7.831-3.506,7.831-7.831
			v-60.69c0-4.325-3.506-7.832-7.831-7.832H54.971c-4.325,0-7.831,3.506-7.831,7.832c0,4.324,3.506,7.83,7.831,7.83h25.451V161.67z
			 M145.029,108.81c4.325,0,7.832-3.506,7.832-7.83c0-4.325-3.507-7.832-7.832-7.832h-33.282c-4.325,0-7.831,3.506-7.831,7.832
			v60.69c0,4.325,3.506,7.831,7.831,7.831s7.831-3.506,7.831-7.831v-52.86H145.029z"/>
	</g>
</g>
</svg>
